# xmcd
#
# Track frame offsets: 
#        150
#        20887
#        45107
#        70700
#        93141
#        114903
#        143669
#        166782
#        192148
#        218961
#
# Disc length: 3218 seconds
#
# Revision: 0
# Processed by: cddbd v1.5.2PL0 Copyright (c) Steve Scherf et al.
# Submitted via: ExactAudioCopy v1.0b3
#
DISCID=780c900a
DTITLE=Manh Quynh - Que Huong Bat Tu 1
DYEAR=1996
DGENRE=
TTITLE0=Tinh em bien rong song dai
TTITLE1=Long Me 2
TTITLE2=Dua em vao ha
TTITLE3=Loi ve dat Me
TTITLE4=Chieu Tay do
TTITLE5=Co lai do Ben Ha
TTITLE6=Nang chieu
TTITLE7=Xin anh giu tron tinh que
TTITLE8=Loi nguoi linh xa xoi
TTITLE9=Que huong
EXTD=
EXTT0=
EXTT1=
EXTT2=
EXTT3=
EXTT4=
EXTT5=
EXTT6=
EXTT7=
EXTT8=
EXTT9=
PLAYORDER=
